# Blender v3.6.4 OBJ File: 'door.blend'
# www.blender.org
mtllib door.mtl
o Cube
v 0.196187 1.230506 1.425024
v 0.196187 1.230506 -1.425024
v 0.196187 -1.230506 1.425024
v 0.196187 -1.230506 -1.425024
v -0.196187 1.230506 1.425024
v -0.196187 1.230506 -1.425024
v -0.196187 -1.230506 1.425024
v -0.196187 -1.230506 -1.425024
vt 0.005792 0.327542
vt 0.327542 0.005792
vt 0.327542 0.327542
vt 0.005792 0.339125
vt 0.327542 0.660875
vt 0.005792 0.660875
vt 0.339125 0.327542
vt 0.660875 0.005791
vt 0.660875 0.327542
vt 0.660875 0.660875
vt 0.339125 0.339125
vt 0.660875 0.339125
vt 0.005792 0.672458
vt 0.327542 0.994209
vt 0.005792 0.994209
vt 0.339125 0.672458
vt 0.660875 0.994209
vt 0.339125 0.994209
vt 0.005792 0.005792
vt 0.327542 0.339125
vt 0.339125 0.005792
vt 0.339125 0.660875
vt 0.327542 0.672458
vt 0.660875 0.672458
vn 0.0000 0.0000 1.0000
vn 0.0000 -1.0000 0.0000
vn -1.0000 0.0000 0.0000
vn 0.0000 0.0000 -1.0000
vn 1.0000 0.0000 0.0000
vn 0.0000 1.0000 0.0000
usemtl Material.001
s off
f 5/1/1 3/2/1 1/3/1
f 3/4/2 8/5/2 4/6/2
f 7/7/3 6/8/3 8/9/3
f 2/10/4 8/11/4 6/12/4
f 1/13/5 4/14/5 2/15/5
f 5/16/6 2/17/6 6/18/6
f 5/1/1 7/19/1 3/2/1
f 3/4/2 7/20/2 8/5/2
f 7/7/3 5/21/3 6/8/3
f 2/10/4 4/22/4 8/11/4
f 1/13/5 3/23/5 4/14/5
f 5/16/6 1/24/6 2/17/6
